<svg width="150" height="32" viewBox="0 0 150 32" fill="none" xmlns="http://www.w3.org/2000/svg">
<g clip-path="url(#clip0)">
<path d="M53.4382 24.88H53.3696L49.176 8.12498H44.2447L40.0685 24.88H39.9999L36.1167 8.12498H30.9268L37.4572 31.582H42.3536L46.6676 15.5482H46.7536L51.0666 31.582H55.9989L62.5119 8.12498H57.3225L53.4382 24.88ZM115.422 7.74644C109.236 7.74644 105.542 11.7505 105.542 18.4689V21.3046C105.542 28.0927 109.22 31.9759 115.406 31.9759C121.61 31.9759 124.702 28.1952 124.702 23.9682V23.539H120.044C120.044 25.9613 118.841 27.852 115.49 27.852C112.123 27.852 110.472 25.7718 110.472 21.3046V18.4689C110.472 14.053 112.139 11.8361 115.456 11.8361C118.566 11.8361 120.044 13.8983 120.044 16.2182H124.701V15.9775C124.702 11.4068 121.23 7.74644 115.422 7.74644ZM70.3654 8.12498L62.8038 31.5815H67.6669L69.365 25.6699H76.7851L78.4576 31.5815H83.6649L76.1208 8.12498H70.3654ZM70.4033 22.0617L73.0802 12.7468H73.1319L75.7673 22.0617H70.4033ZM144.326 8.12498V17.5413H134.738V8.12498H129.874V31.582H134.738V21.5802H144.326V31.582H149.207V8.12498H144.326ZM83.5799 12.1803H90.5569V31.582H95.4032V12.1803H102.397V8.12498H83.5799V12.1803Z" fill="#0C1014"/>
<path d="M19.4047 7.73057C16.7698 7.53643 14.5354 9.20271 13.2886 9.20271C12.0239 9.20271 10.0734 7.77257 8.00397 7.81047C5.28864 7.85248 2.78537 9.38968 1.38545 11.8238C-1.43591 16.7212 0.665253 23.9759 3.41285 27.9472C4.75694 29.8912 6.3592 32.0779 8.46497 31.998C10.4924 31.9186 11.2582 30.6856 13.7076 30.6856C16.1556 30.6856 16.8466 31.998 18.9898 31.9565C21.1703 31.918 22.5528 29.9777 23.8867 28.0231C25.431 25.7708 26.0652 23.5902 26.1031 23.4719C26.0544 23.455 21.8511 21.8394 21.8091 16.9973C21.7712 12.9502 25.1135 11.0027 25.2661 10.909C23.3683 8.11576 20.4368 7.8074 19.4047 7.73057ZM17.7783 5.10693C18.897 3.75669 19.6505 1.87117 19.4431 -3.8147e-06C17.8326 0.0624882 15.8851 1.07312 14.7306 2.42284C13.6959 3.62044 12.7872 5.53669 13.0335 7.37303C14.8299 7.51133 16.6601 6.46024 17.7783 5.10693Z" fill="#0C1014"/>
</g>
<defs>
<clipPath id="clip0">
<rect width="149.254" height="32" fill="white"/>
</clipPath>
</defs>
</svg>
