<svg width="24" height="23" viewBox="0 0 24 23" fill="none" xmlns="http://www.w3.org/2000/svg">
<path d="M16.4647 0H7.83972C3.87078 0 0.652222 3.21856 0.652222 7.1875V15.8125C0.652222 19.7814 3.87078 23 7.83972 23H16.4647C20.4337 23 23.6522 19.7814 23.6522 15.8125V7.1875C23.6522 3.21856 20.4337 0 16.4647 0ZM21.496 15.8125C21.496 18.5869 19.2391 20.8438 16.4647 20.8438H7.83972C5.06535 20.8438 2.80847 18.5869 2.80847 15.8125V7.1875C2.80847 4.41313 5.06535 2.15625 7.83972 2.15625H16.4647C19.2391 2.15625 21.496 4.41313 21.496 7.1875V15.8125Z" fill="white"/>
<path d="M12.1522 5.75C8.97678 5.75 6.40222 8.32456 6.40222 11.5C6.40222 14.6754 8.97678 17.25 12.1522 17.25C15.3277 17.25 17.9022 14.6754 17.9022 11.5C17.9022 8.32456 15.3277 5.75 12.1522 5.75ZM12.1522 15.0938C10.1713 15.0938 8.55847 13.4809 8.55847 11.5C8.55847 9.51769 10.1713 7.90625 12.1522 7.90625C14.1331 7.90625 15.746 9.51769 15.746 11.5C15.746 13.4809 14.1331 15.0938 12.1522 15.0938Z" fill="white"/>
<path d="M18.3334 6.08486C18.7566 6.08486 19.0996 5.74183 19.0996 5.31867C19.0996 4.89552 18.7566 4.55249 18.3334 4.55249C17.9103 4.55249 17.5673 4.89552 17.5673 5.31867C17.5673 5.74183 17.9103 6.08486 18.3334 6.08486Z" fill="white"/>
</svg>
