<svg width="34" height="34" viewBox="0 0 34 34" fill="none" xmlns="http://www.w3.org/2000/svg">
<path fill-rule="evenodd" clip-rule="evenodd" d="M0 2.84034C0 1.27166 1.27079 0 2.84034 0H31.1597C32.7283 0 34 1.27079 34 2.84034V31.1597C34 32.7283 32.7292 34 31.1597 34H2.84034C1.27166 34 0 32.7292 0 31.1597V2.84034ZM13.4583 12.9625H18.0625V15.2759C18.7262 13.9457 20.4269 12.75 22.9819 12.75C27.8793 12.75 29.0417 15.3977 29.0417 20.2562V29.2542H24.0833V21.3626C24.0833 18.5959 23.4196 17.0354 21.7317 17.0354C19.3906 17.0354 18.4167 18.7177 18.4167 21.3626V29.2542H13.4583V12.9625ZM4.95833 29.0417H9.91667V12.75H4.95833V29.0417ZM10.625 7.4375C10.625 9.19771 9.19771 10.625 7.4375 10.625C5.67729 10.625 4.25 9.19771 4.25 7.4375C4.25 5.67729 5.67729 4.25 7.4375 4.25C9.19771 4.25 10.625 5.67729 10.625 7.4375Z" fill="#0077B5"/>
</svg>
