<svg width="24" height="19" viewBox="0 0 24 19" fill="none" xmlns="http://www.w3.org/2000/svg">
<path d="M23.826 2.36856C22.9707 2.74375 22.0594 2.99244 21.1092 3.11319C22.0867 2.52956 22.8327 1.61244 23.1835 0.507C22.2721 1.05037 21.2659 1.43419 20.1935 1.64838C19.3281 0.726938 18.0947 0.15625 16.7492 0.15625C14.1387 0.15625 12.0371 2.27513 12.0371 4.87269C12.0371 5.24644 12.0687 5.60581 12.1464 5.94794C8.2263 5.75675 4.75761 3.87794 2.42742 1.01588C2.02061 1.72169 1.78199 2.52956 1.78199 3.39925C1.78199 5.03225 2.62292 6.47981 3.87642 7.31787C3.11886 7.3035 2.37567 7.08356 1.74605 6.73712C1.74605 6.7515 1.74605 6.77019 1.74605 6.78887C1.74605 9.08025 3.38049 10.9835 5.5238 11.4219C5.13999 11.5269 4.72167 11.5772 4.28755 11.5772C3.98567 11.5772 3.68092 11.5599 3.39486 11.4967C4.0058 13.364 5.73943 14.7368 7.8008 14.7814C6.19655 16.0363 4.15961 16.7924 1.95449 16.7924C1.5678 16.7924 1.19692 16.7752 0.82605 16.7277C2.91474 18.0747 5.39011 18.8438 8.05955 18.8438C16.7363 18.8438 21.48 11.6562 21.48 5.42613C21.48 5.21769 21.4729 5.01644 21.4628 4.81663C22.3986 4.1525 23.1849 3.32306 23.826 2.36856Z" fill="white"/>
</svg>
